<?xml version="1.0" encoding="UTF-8" standalone="no"?>
<!DOCTYPE svg PUBLIC "-//W3C//DTD SVG 1.1//EN"
 "http://www.w3.org/Graphics/SVG/1.1/DTD/svg11.dtd">
<!-- Generated by graphviz version 2.47.0 (20210316.0004)
 -->
<!-- Title: dependencies Pages: 1 -->
<svg width="821pt" height="211pt"
 viewBox="0.00 0.00 821.00 211.00" xmlns="http://www.w3.org/2000/svg" xmlns:xlink="http://www.w3.org/1999/xlink">
<g id="graph0" class="graph" transform="scale(1 1) rotate(0) translate(4 207)">
<title>dependencies</title>
<polygon fill="white" stroke="transparent" points="-4,4 -4,-207 817,-207 817,4 -4,4"/>
<text text-anchor="start" x="385.51" y="-42.4" font-family="Times-12" font-weight="bold" font-size="14.00">Legend</text>
<polygon fill="#ffffb3" stroke="transparent" points="172.5,-10 172.5,-30 192.5,-30 192.5,-10 172.5,-10"/>
<text text-anchor="start" x="196.13" y="-15.4" font-family="Times-12" font-size="14.00"> &#160;Declarations</text>
<polygon fill="#8dd3c7" stroke="transparent" points="285.5,-10 285.5,-30 305.5,-30 305.5,-10 285.5,-10"/>
<text text-anchor="start" x="309.23" y="-15.4" font-family="Times-12" font-size="14.00"> &#160;Module</text>
<polygon fill="#80b1d3" stroke="transparent" points="371.5,-10 371.5,-30 391.5,-30 391.5,-10 371.5,-10"/>
<text text-anchor="start" x="395.28" y="-15.4" font-family="Times-12" font-size="14.00"> &#160;Bootstrap</text>
<polygon fill="#fdb462" stroke="transparent" points="468.5,-10 468.5,-30 488.5,-30 488.5,-10 468.5,-10"/>
<text text-anchor="start" x="492.17" y="-15.4" font-family="Times-12" font-size="14.00"> &#160;Providers</text>
<polygon fill="#fb8072" stroke="transparent" points="564.5,-10 564.5,-30 584.5,-30 584.5,-10 564.5,-10"/>
<text text-anchor="start" x="588.23" y="-15.4" font-family="Times-12" font-size="14.00"> &#160;Exports</text>
<g id="clust1" class="cluster">
<title>cluster_AuthModule</title>
<polygon fill="none" stroke="black" stroke-dasharray="1,5" points="8,-70 8,-195 805,-195 805,-70 8,-70"/>
</g>
<g id="clust6" class="cluster">
<title>cluster_AuthModule_providers</title>
<polygon fill="none" stroke="black" points="241,-78 241,-130 797,-130 797,-78 241,-78"/>
</g>
<g id="clust3" class="cluster">
<title>cluster_AuthModule_imports</title>
<polygon fill="none" stroke="black" points="16,-78 16,-130 233,-130 233,-78 16,-78"/>
</g>
<!-- RolesModule -->
<g id="node1" class="node">
<title>RolesModule</title>
<polygon fill="#8dd3c7" stroke="black" points="224.94,-122 221.94,-126 200.94,-126 197.94,-122 133.06,-122 133.06,-86 224.94,-86 224.94,-122"/>
<text text-anchor="middle" x="179" y="-99.8" font-family="Times,serif" font-size="14.00">RolesModule</text>
</g>
<!-- AuthModule -->
<g id="node3" class="node">
<title>AuthModule</title>
<polygon fill="#8dd3c7" stroke="black" points="426.55,-187 423.55,-191 402.55,-191 399.55,-187 339.45,-187 339.45,-151 426.55,-151 426.55,-187"/>
<text text-anchor="middle" x="383" y="-164.8" font-family="Times,serif" font-size="14.00">AuthModule</text>
</g>
<!-- RolesModule&#45;&gt;AuthModule -->
<g id="edge1" class="edge">
<title>RolesModule&#45;&gt;AuthModule</title>
<path fill="none" stroke="black" d="M179,-122.02C179,-139.37 179,-163 179,-163 179,-163 329.24,-163 329.24,-163"/>
<polygon fill="black" stroke="black" points="329.24,-166.5 339.24,-163 329.24,-159.5 329.24,-166.5"/>
</g>
<!-- UsersModule -->
<g id="node2" class="node">
<title>UsersModule</title>
<polygon fill="#8dd3c7" stroke="black" points="115.92,-122 112.92,-126 91.92,-126 88.92,-122 24.08,-122 24.08,-86 115.92,-86 115.92,-122"/>
<text text-anchor="middle" x="70" y="-99.8" font-family="Times,serif" font-size="14.00">UsersModule</text>
</g>
<!-- UsersModule&#45;&gt;AuthModule -->
<g id="edge2" class="edge">
<title>UsersModule&#45;&gt;AuthModule</title>
<path fill="none" stroke="black" d="M70,-122.28C70,-143.32 70,-175 70,-175 70,-175 329.15,-175 329.15,-175"/>
<polygon fill="black" stroke="black" points="329.15,-178.5 339.15,-175 329.15,-171.5 329.15,-178.5"/>
</g>
<!-- AuthService -->
<g id="node4" class="node">
<title>AuthService</title>
<ellipse fill="#fdb462" stroke="black" cx="730" cy="-104" rx="59.11" ry="18"/>
<text text-anchor="middle" x="730" y="-99.8" font-family="Times,serif" font-size="14.00">AuthService</text>
</g>
<!-- AuthService&#45;&gt;AuthModule -->
<g id="edge3" class="edge">
<title>AuthService&#45;&gt;AuthModule</title>
<path fill="none" stroke="black" d="M730,-122.28C730,-143.32 730,-175 730,-175 730,-175 436.6,-175 436.6,-175"/>
<polygon fill="black" stroke="black" points="436.6,-171.5 426.6,-175 436.6,-178.5 436.6,-171.5"/>
</g>
<!-- JwtStrategy -->
<g id="node5" class="node">
<title>JwtStrategy</title>
<ellipse fill="#fdb462" stroke="black" cx="596" cy="-104" rx="56.76" ry="18"/>
<text text-anchor="middle" x="596" y="-99.8" font-family="Times,serif" font-size="14.00">JwtStrategy</text>
</g>
<!-- JwtStrategy&#45;&gt;AuthModule -->
<g id="edge4" class="edge">
<title>JwtStrategy&#45;&gt;AuthModule</title>
<path fill="none" stroke="black" d="M596,-122.02C596,-139.37 596,-163 596,-163 596,-163 436.62,-163 436.62,-163"/>
<polygon fill="black" stroke="black" points="436.62,-159.5 426.62,-163 436.62,-166.5 436.62,-159.5"/>
</g>
<!-- LocalStrategy -->
<g id="node6" class="node">
<title>LocalStrategy</title>
<ellipse fill="#fdb462" stroke="black" cx="456" cy="-104" rx="65.41" ry="18"/>
<text text-anchor="middle" x="456" y="-99.8" font-family="Times,serif" font-size="14.00">LocalStrategy</text>
</g>
<!-- LocalStrategy&#45;&gt;AuthModule -->
<g id="edge5" class="edge">
<title>LocalStrategy&#45;&gt;AuthModule</title>
<path fill="none" stroke="black" d="M408.79,-116.53C408.79,-116.53 408.79,-140.85 408.79,-140.85"/>
<polygon fill="black" stroke="black" points="405.29,-140.85 408.79,-150.85 412.29,-140.85 405.29,-140.85"/>
</g>
<!-- UsersService -->
<g id="node7" class="node">
<title>UsersService</title>
<ellipse fill="#fdb462" stroke="black" cx="311" cy="-104" rx="61.95" ry="18"/>
<text text-anchor="middle" x="311" y="-99.8" font-family="Times,serif" font-size="14.00">UsersService</text>
</g>
<!-- UsersService&#45;&gt;AuthModule -->
<g id="edge6" class="edge">
<title>UsersService&#45;&gt;AuthModule</title>
<path fill="none" stroke="black" d="M356.1,-116.53C356.1,-116.53 356.1,-140.85 356.1,-140.85"/>
<polygon fill="black" stroke="black" points="352.6,-140.85 356.1,-150.85 359.6,-140.85 352.6,-140.85"/>
</g>
</g>
</svg>
