<?xml version="1.0" encoding="UTF-8" standalone="no"?>
<!DOCTYPE svg PUBLIC "-//W3C//DTD SVG 1.1//EN"
 "http://www.w3.org/Graphics/SVG/1.1/DTD/svg11.dtd">
<!-- Generated by graphviz version 2.47.0 (20210316.0004)
 -->
<!-- Title: dependencies Pages: 1 -->
<svg width="2512pt" height="298pt"
 viewBox="0.00 0.00 2512.00 298.00" xmlns="http://www.w3.org/2000/svg" xmlns:xlink="http://www.w3.org/1999/xlink">
<g id="graph0" class="graph" transform="scale(1 1) rotate(0) translate(4 294)">
<title>dependencies</title>
<polygon fill="white" stroke="transparent" points="-4,4 -4,-294 2508,-294 2508,4 -4,4"/>
<text text-anchor="start" x="1231.01" y="-42.4" font-family="Times-12" font-weight="bold" font-size="14.00">Legend</text>
<polygon fill="#ffffb3" stroke="transparent" points="1018,-10 1018,-30 1038,-30 1038,-10 1018,-10"/>
<text text-anchor="start" x="1041.63" y="-15.4" font-family="Times-12" font-size="14.00"> &#160;Declarations</text>
<polygon fill="#8dd3c7" stroke="transparent" points="1131,-10 1131,-30 1151,-30 1151,-10 1131,-10"/>
<text text-anchor="start" x="1154.73" y="-15.4" font-family="Times-12" font-size="14.00"> &#160;Module</text>
<polygon fill="#80b1d3" stroke="transparent" points="1217,-10 1217,-30 1237,-30 1237,-10 1217,-10"/>
<text text-anchor="start" x="1240.78" y="-15.4" font-family="Times-12" font-size="14.00"> &#160;Bootstrap</text>
<polygon fill="#fdb462" stroke="transparent" points="1314,-10 1314,-30 1334,-30 1334,-10 1314,-10"/>
<text text-anchor="start" x="1337.67" y="-15.4" font-family="Times-12" font-size="14.00"> &#160;Providers</text>
<polygon fill="#fb8072" stroke="transparent" points="1410,-10 1410,-30 1430,-30 1430,-10 1410,-10"/>
<text text-anchor="start" x="1433.73" y="-15.4" font-family="Times-12" font-size="14.00"> &#160;Exports</text>
<g id="clust1" class="cluster">
<title>cluster_AppModule</title>
<polygon fill="none" stroke="black" stroke-dasharray="1,5" points="480,-146 480,-282 1968,-282 1968,-146 480,-146"/>
</g>
<g id="clust3" class="cluster">
<title>cluster_AppModule_imports</title>
<polygon fill="none" stroke="black" points="488,-154 488,-274 1822,-274 1822,-154 488,-154"/>
</g>
<g id="clust6" class="cluster">
<title>cluster_AppModule_providers</title>
<polygon fill="none" stroke="black" points="1830,-154 1830,-206 1960,-206 1960,-154 1830,-154"/>
</g>
<g id="clust7" class="cluster">
<title>cluster_AuthModule</title>
<polygon fill="none" stroke="black" stroke-dasharray="1,5" points="8,-70 8,-138 580,-138 580,-70 8,-70"/>
</g>
<g id="clust12" class="cluster">
<title>cluster_AuthModule_providers</title>
<polygon fill="none" stroke="black" points="16,-78 16,-130 572,-130 572,-78 16,-78"/>
</g>
<g id="clust13" class="cluster">
<title>cluster_CompaniesModule</title>
<polygon fill="none" stroke="black" stroke-dasharray="1,5" points="588,-70 588,-138 786,-138 786,-70 588,-70"/>
</g>
<g id="clust18" class="cluster">
<title>cluster_CompaniesModule_providers</title>
<polygon fill="none" stroke="black" points="596,-78 596,-130 778,-130 778,-78 596,-78"/>
</g>
<g id="clust19" class="cluster">
<title>cluster_DatabasesModule</title>
<polygon fill="none" stroke="black" stroke-dasharray="1,5" points="794,-70 794,-138 984,-138 984,-70 794,-70"/>
</g>
<g id="clust24" class="cluster">
<title>cluster_DatabasesModule_providers</title>
<polygon fill="none" stroke="black" points="802,-78 802,-130 976,-130 976,-78 802,-78"/>
</g>
<g id="clust25" class="cluster">
<title>cluster_FilesModule</title>
<polygon fill="none" stroke="black" stroke-dasharray="1,5" points="992,-70 992,-138 1142,-138 1142,-70 992,-70"/>
</g>
<g id="clust30" class="cluster">
<title>cluster_FilesModule_providers</title>
<polygon fill="none" stroke="black" points="1000,-78 1000,-130 1134,-130 1134,-78 1000,-78"/>
</g>
<g id="clust37" class="cluster">
<title>cluster_JobsModule</title>
<polygon fill="none" stroke="black" stroke-dasharray="1,5" points="1150,-70 1150,-138 1296,-138 1296,-70 1150,-70"/>
</g>
<g id="clust42" class="cluster">
<title>cluster_JobsModule_providers</title>
<polygon fill="none" stroke="black" points="1158,-78 1158,-130 1288,-130 1288,-78 1158,-78"/>
</g>
<g id="clust43" class="cluster">
<title>cluster_MailModule</title>
<polygon fill="none" stroke="black" stroke-dasharray="1,5" points="1304,-70 1304,-138 1452,-138 1452,-70 1304,-70"/>
</g>
<g id="clust48" class="cluster">
<title>cluster_MailModule_providers</title>
<polygon fill="none" stroke="black" points="1312,-78 1312,-130 1444,-130 1444,-78 1312,-78"/>
</g>
<g id="clust49" class="cluster">
<title>cluster_PermissionsModule</title>
<polygon fill="none" stroke="black" stroke-dasharray="1,5" points="1460,-70 1460,-138 1666,-138 1666,-70 1460,-70"/>
</g>
<g id="clust54" class="cluster">
<title>cluster_PermissionsModule_providers</title>
<polygon fill="none" stroke="black" points="1468,-78 1468,-130 1658,-130 1658,-78 1468,-78"/>
</g>
<g id="clust55" class="cluster">
<title>cluster_ResumesModule</title>
<polygon fill="none" stroke="black" stroke-dasharray="1,5" points="1674,-70 1674,-138 1856,-138 1856,-70 1674,-70"/>
</g>
<g id="clust60" class="cluster">
<title>cluster_ResumesModule_providers</title>
<polygon fill="none" stroke="black" points="1682,-78 1682,-130 1848,-130 1848,-78 1682,-78"/>
</g>
<g id="clust61" class="cluster">
<title>cluster_RolesModule</title>
<polygon fill="none" stroke="black" stroke-dasharray="1,5" points="1976,-214 1976,-282 2362,-282 2362,-214 1976,-214"/>
</g>
<g id="clust64" class="cluster">
<title>cluster_RolesModule_exports</title>
<polygon fill="none" stroke="black" points="2132,-222 2132,-274 2354,-274 2354,-222 2132,-222"/>
</g>
<g id="clust66" class="cluster">
<title>cluster_RolesModule_providers</title>
<polygon fill="none" stroke="black" points="1984,-222 1984,-274 2124,-274 2124,-222 1984,-222"/>
</g>
<g id="clust67" class="cluster">
<title>cluster_SubscribersModule</title>
<polygon fill="none" stroke="black" stroke-dasharray="1,5" points="1864,-70 1864,-138 2066,-138 2066,-70 1864,-70"/>
</g>
<g id="clust72" class="cluster">
<title>cluster_SubscribersModule_providers</title>
<polygon fill="none" stroke="black" points="1872,-78 1872,-130 2058,-130 2058,-78 1872,-78"/>
</g>
<g id="clust73" class="cluster">
<title>cluster_UsersModule</title>
<polygon fill="none" stroke="black" stroke-dasharray="1,5" points="2370,-214 2370,-282 2496,-282 2496,-214 2370,-214"/>
</g>
<g id="clust76" class="cluster">
<title>cluster_UsersModule_exports</title>
<polygon fill="none" stroke="black" points="2378,-222 2378,-274 2488,-274 2488,-222 2378,-222"/>
</g>
<!-- AuthModule -->
<g id="node1" class="node">
<title>AuthModule</title>
<polygon fill="#8dd3c7" stroke="black" points="583.55,-266 580.55,-270 559.55,-270 556.55,-266 496.45,-266 496.45,-230 583.55,-230 583.55,-266"/>
<text text-anchor="middle" x="540" y="-243.8" font-family="Times,serif" font-size="14.00">AuthModule</text>
</g>
<!-- AppModule -->
<g id="node13" class="node">
<title>AppModule</title>
<polygon fill="#8dd3c7" stroke="black" points="1913.66,-266 1910.66,-270 1889.66,-270 1886.66,-266 1830.34,-266 1830.34,-230 1913.66,-230 1913.66,-266"/>
<text text-anchor="middle" x="1872" y="-243.8" font-family="Times,serif" font-size="14.00">AppModule</text>
</g>
<!-- AuthModule&#45;&gt;AppModule -->
<g id="edge1" class="edge">
<title>AuthModule&#45;&gt;AppModule</title>
<path fill="none" stroke="black" d="M583.56,-264C583.56,-264 1820.1,-264 1820.1,-264"/>
<polygon fill="black" stroke="black" points="1820.1,-267.5 1830.1,-264 1820.1,-260.5 1820.1,-267.5"/>
</g>
<!-- CompaniesModule -->
<g id="node2" class="node">
<title>CompaniesModule</title>
<polygon fill="#8dd3c7" stroke="black" points="842.04,-198 839.04,-202 818.04,-202 815.04,-198 719.96,-198 719.96,-162 842.04,-162 842.04,-198"/>
<text text-anchor="middle" x="781" y="-175.8" font-family="Times,serif" font-size="14.00">CompaniesModule</text>
</g>
<!-- CompaniesModule&#45;&gt;AppModule -->
<g id="edge2" class="edge">
<title>CompaniesModule&#45;&gt;AppModule</title>
<path fill="none" stroke="black" d="M781,-198.28C781,-219.32 781,-251 781,-251 781,-251 1820.23,-251 1820.23,-251"/>
<polygon fill="black" stroke="black" points="1820.23,-254.5 1830.23,-251 1820.23,-247.5 1820.23,-254.5"/>
</g>
<!-- DatabasesModule -->
<g id="node3" class="node">
<title>DatabasesModule</title>
<polygon fill="#8dd3c7" stroke="black" points="976.29,-198 973.29,-202 952.29,-202 949.29,-198 859.71,-198 859.71,-162 976.29,-162 976.29,-198"/>
<text text-anchor="middle" x="918" y="-175.8" font-family="Times,serif" font-size="14.00">DatabasesModule</text>
</g>
<!-- DatabasesModule&#45;&gt;AppModule -->
<g id="edge3" class="edge">
<title>DatabasesModule&#45;&gt;AppModule</title>
<path fill="none" stroke="black" d="M918,-198.22C918,-218.37 918,-248 918,-248 918,-248 1820.09,-248 1820.09,-248"/>
<polygon fill="black" stroke="black" points="1820.09,-251.5 1830.09,-248 1820.09,-244.5 1820.09,-251.5"/>
</g>
<!-- FilesModule -->
<g id="node4" class="node">
<title>FilesModule</title>
<polygon fill="#8dd3c7" stroke="black" points="1081.27,-198 1078.27,-202 1057.27,-202 1054.27,-198 994.73,-198 994.73,-162 1081.27,-162 1081.27,-198"/>
<text text-anchor="middle" x="1038" y="-175.8" font-family="Times,serif" font-size="14.00">FilesModule</text>
</g>
<!-- FilesModule&#45;&gt;AppModule -->
<g id="edge4" class="edge">
<title>FilesModule&#45;&gt;AppModule</title>
<path fill="none" stroke="black" d="M1038,-198.03C1038,-217.58 1038,-246 1038,-246 1038,-246 1820.07,-246 1820.07,-246"/>
<polygon fill="black" stroke="black" points="1820.07,-249.5 1830.07,-246 1820.07,-242.5 1820.07,-249.5"/>
</g>
<!-- HealthModule -->
<g id="node5" class="node">
<title>HealthModule</title>
<polygon fill="#8dd3c7" stroke="black" points="592.37,-198 589.37,-202 568.37,-202 565.37,-198 495.63,-198 495.63,-162 592.37,-162 592.37,-198"/>
<text text-anchor="middle" x="544" y="-175.8" font-family="Times,serif" font-size="14.00">HealthModule</text>
</g>
<!-- HealthModule&#45;&gt;AppModule -->
<g id="edge5" class="edge">
<title>HealthModule&#45;&gt;AppModule</title>
<path fill="none" stroke="black" d="M588.1,-198.38C588.1,-222.28 588.1,-261 588.1,-261 588.1,-261 1820.01,-261 1820.01,-261"/>
<polygon fill="black" stroke="black" points="1820.01,-264.5 1830.01,-261 1820.01,-257.5 1820.01,-264.5"/>
</g>
<!-- JobsModule -->
<g id="node6" class="node">
<title>JobsModule</title>
<polygon fill="#8dd3c7" stroke="black" points="1184.44,-198 1181.44,-202 1160.44,-202 1157.44,-198 1099.56,-198 1099.56,-162 1184.44,-162 1184.44,-198"/>
<text text-anchor="middle" x="1142" y="-175.8" font-family="Times,serif" font-size="14.00">JobsModule</text>
</g>
<!-- JobsModule&#45;&gt;AppModule -->
<g id="edge6" class="edge">
<title>JobsModule&#45;&gt;AppModule</title>
<path fill="none" stroke="black" d="M1142,-198.22C1142,-216.83 1142,-243 1142,-243 1142,-243 1820.13,-243 1820.13,-243"/>
<polygon fill="black" stroke="black" points="1820.13,-246.5 1830.13,-243 1820.13,-239.5 1820.13,-246.5"/>
</g>
<!-- MailModule -->
<g id="node7" class="node">
<title>MailModule</title>
<polygon fill="#8dd3c7" stroke="black" points="1287.99,-198 1284.99,-202 1263.99,-202 1260.99,-198 1202.01,-198 1202.01,-162 1287.99,-162 1287.99,-198"/>
<text text-anchor="middle" x="1245" y="-175.8" font-family="Times,serif" font-size="14.00">MailModule</text>
</g>
<!-- MailModule&#45;&gt;AppModule -->
<g id="edge7" class="edge">
<title>MailModule&#45;&gt;AppModule</title>
<path fill="none" stroke="black" d="M1245,-198.3C1245,-216.27 1245,-241 1245,-241 1245,-241 1819.89,-241 1819.89,-241"/>
<polygon fill="black" stroke="black" points="1819.89,-244.5 1829.89,-241 1819.89,-237.5 1819.89,-244.5"/>
</g>
<!-- PermissionsModule -->
<g id="node8" class="node">
<title>PermissionsModule</title>
<polygon fill="#8dd3c7" stroke="black" points="1433.71,-198 1430.71,-202 1409.71,-202 1406.71,-198 1306.29,-198 1306.29,-162 1433.71,-162 1433.71,-198"/>
<text text-anchor="middle" x="1370" y="-175.8" font-family="Times,serif" font-size="14.00">PermissionsModule</text>
</g>
<!-- PermissionsModule&#45;&gt;AppModule -->
<g id="edge8" class="edge">
<title>PermissionsModule&#45;&gt;AppModule</title>
<path fill="none" stroke="black" d="M1370,-198.03C1370,-215.06 1370,-238 1370,-238 1370,-238 1820.06,-238 1820.06,-238"/>
<polygon fill="black" stroke="black" points="1820.06,-241.5 1830.06,-238 1820.06,-234.5 1820.06,-241.5"/>
</g>
<!-- ResumesModule -->
<g id="node9" class="node">
<title>ResumesModule</title>
<polygon fill="#8dd3c7" stroke="black" points="1562.1,-198 1559.1,-202 1538.1,-202 1535.1,-198 1451.9,-198 1451.9,-162 1562.1,-162 1562.1,-198"/>
<text text-anchor="middle" x="1507" y="-175.8" font-family="Times,serif" font-size="14.00">ResumesModule</text>
</g>
<!-- ResumesModule&#45;&gt;AppModule -->
<g id="edge9" class="edge">
<title>ResumesModule&#45;&gt;AppModule</title>
<path fill="none" stroke="black" d="M1507,-198.03C1507,-214.4 1507,-236 1507,-236 1507,-236 1820.13,-236 1820.13,-236"/>
<polygon fill="black" stroke="black" points="1820.13,-239.5 1830.13,-236 1820.13,-232.5 1820.13,-239.5"/>
</g>
<!-- RolesModule -->
<g id="node10" class="node">
<title>RolesModule</title>
<polygon fill="#8dd3c7" stroke="black" points="1813.94,-198 1810.94,-202 1789.94,-202 1786.94,-198 1722.06,-198 1722.06,-162 1813.94,-162 1813.94,-198"/>
<text text-anchor="middle" x="1768" y="-175.8" font-family="Times,serif" font-size="14.00">RolesModule</text>
</g>
<!-- RolesModule&#45;&gt;AuthModule -->
<g id="edge14" class="edge">
<title>RolesModule&#45;&gt;AuthModule</title>
<path fill="none" stroke="black" d="M1740.57,-198.32C1740.57,-221.66 1740.57,-259 1740.57,-259 1740.57,-259 593.79,-259 593.79,-259"/>
<polygon fill="black" stroke="black" points="593.79,-255.5 583.79,-259 593.79,-262.5 593.79,-255.5"/>
</g>
<!-- RolesModule&#45;&gt;AppModule -->
<g id="edge10" class="edge">
<title>RolesModule&#45;&gt;AppModule</title>
<path fill="none" stroke="black" d="M1814.03,-180C1825.34,-180 1834.28,-180 1834.28,-180 1834.28,-180 1834.28,-219.78 1834.28,-219.78"/>
<polygon fill="black" stroke="black" points="1830.78,-219.78 1834.28,-229.78 1837.78,-219.78 1830.78,-219.78"/>
</g>
<!-- RolesModule  -->
<g id="node26" class="node">
<title>RolesModule </title>
<polygon fill="#fb8072" stroke="black" points="2346.44,-266 2251.56,-266 2251.56,-230 2346.44,-230 2346.44,-266"/>
<text text-anchor="middle" x="2299" y="-243.8" font-family="Times,serif" font-size="14.00">RolesModule </text>
</g>
<!-- RolesModule&#45;&gt;RolesModule  -->
<g id="edge28" class="edge">
<title>RolesModule&#45;&gt;RolesModule </title>
<path fill="none" stroke="black" stroke-dasharray="5,2" d="M1777.14,-198.03C1777.14,-204.85 1777.14,-211 1777.14,-211 1777.14,-211 2299,-211 2299,-211 2299,-211 2299,-219.93 2299,-219.93"/>
<polygon fill="black" stroke="black" points="2295.5,-219.93 2299,-229.93 2302.5,-219.93 2295.5,-219.93"/>
</g>
<!-- RolesService  -->
<g id="node27" class="node">
<title>RolesService </title>
<polygon fill="#fb8072" stroke="black" points="2233.86,-266 2140.14,-266 2140.14,-230 2233.86,-230 2233.86,-266"/>
<text text-anchor="middle" x="2187" y="-243.8" font-family="Times,serif" font-size="14.00">RolesService </text>
</g>
<!-- RolesModule&#45;&gt;RolesService  -->
<g id="edge29" class="edge">
<title>RolesModule&#45;&gt;RolesService </title>
<path fill="none" stroke="black" stroke-dasharray="5,2" d="M1758.86,-198.11C1758.86,-207.9 1758.86,-218 1758.86,-218 1758.86,-218 2187,-218 2187,-218 2187,-218 2187,-219.86 2187,-219.86"/>
<polygon fill="black" stroke="black" points="2183.5,-219.86 2187,-229.86 2190.5,-219.86 2183.5,-219.86"/>
</g>
<!-- SubscribersModule -->
<g id="node11" class="node">
<title>SubscribersModule</title>
<polygon fill="#8dd3c7" stroke="black" points="1704.36,-198 1701.36,-202 1680.36,-202 1677.36,-198 1579.64,-198 1579.64,-162 1704.36,-162 1704.36,-198"/>
<text text-anchor="middle" x="1642" y="-175.8" font-family="Times,serif" font-size="14.00">SubscribersModule</text>
</g>
<!-- SubscribersModule&#45;&gt;AppModule -->
<g id="edge11" class="edge">
<title>SubscribersModule&#45;&gt;AppModule</title>
<path fill="none" stroke="black" d="M1642,-198.24C1642,-213.57 1642,-233 1642,-233 1642,-233 1820.08,-233 1820.08,-233"/>
<polygon fill="black" stroke="black" points="1820.08,-236.5 1830.08,-233 1820.08,-229.5 1820.08,-236.5"/>
</g>
<!-- UsersModule -->
<g id="node12" class="node">
<title>UsersModule</title>
<polygon fill="#8dd3c7" stroke="black" points="701.92,-198 698.92,-202 677.92,-202 674.92,-198 610.08,-198 610.08,-162 701.92,-162 701.92,-198"/>
<text text-anchor="middle" x="656" y="-175.8" font-family="Times,serif" font-size="14.00">UsersModule</text>
</g>
<!-- UsersModule&#45;&gt;AuthModule -->
<g id="edge15" class="edge">
<title>UsersModule&#45;&gt;AuthModule</title>
<path fill="none" stroke="black" d="M656,-198.01C656,-220.49 656,-256 656,-256 656,-256 593.85,-256 593.85,-256"/>
<polygon fill="black" stroke="black" points="593.85,-252.5 583.85,-256 593.85,-259.5 593.85,-252.5"/>
</g>
<!-- UsersModule&#45;&gt;AppModule -->
<g id="edge12" class="edge">
<title>UsersModule&#45;&gt;AppModule</title>
<path fill="none" stroke="black" d="M678.86,-198.29C678.86,-220.21 678.86,-254 678.86,-254 678.86,-254 1820.23,-254 1820.23,-254"/>
<polygon fill="black" stroke="black" points="1820.23,-257.5 1830.23,-254 1820.23,-250.5 1820.23,-257.5"/>
</g>
<!-- UsersService  -->
<g id="node30" class="node">
<title>UsersService </title>
<polygon fill="#fb8072" stroke="black" points="2479.85,-266 2386.15,-266 2386.15,-230 2479.85,-230 2479.85,-266"/>
<text text-anchor="middle" x="2433" y="-243.8" font-family="Times,serif" font-size="14.00">UsersService </text>
</g>
<!-- UsersModule&#45;&gt;UsersService  -->
<g id="edge32" class="edge">
<title>UsersModule&#45;&gt;UsersService </title>
<path fill="none" stroke="black" stroke-dasharray="5,2" d="M633.14,-198.17C633.14,-202.05 633.14,-205 633.14,-205 633.14,-205 2433,-205 2433,-205 2433,-205 2433,-219.51 2433,-219.51"/>
<polygon fill="black" stroke="black" points="2429.5,-219.51 2433,-229.51 2436.5,-219.51 2429.5,-219.51"/>
</g>
<!-- AppService -->
<g id="node14" class="node">
<title>AppService</title>
<ellipse fill="#fdb462" stroke="black" cx="1895" cy="-180" rx="56.74" ry="18"/>
<text text-anchor="middle" x="1895" y="-175.8" font-family="Times,serif" font-size="14.00">AppService</text>
</g>
<!-- AppService&#45;&gt;AppModule -->
<g id="edge13" class="edge">
<title>AppService&#45;&gt;AppModule</title>
<path fill="none" stroke="black" d="M1876.1,-197.16C1876.1,-197.16 1876.1,-219.65 1876.1,-219.65"/>
<polygon fill="black" stroke="black" points="1872.6,-219.65 1876.1,-229.65 1879.6,-219.65 1872.6,-219.65"/>
</g>
<!-- AuthService -->
<g id="node15" class="node">
<title>AuthService</title>
<ellipse fill="#fdb462" stroke="black" cx="83" cy="-104" rx="59.11" ry="18"/>
<text text-anchor="middle" x="83" y="-99.8" font-family="Times,serif" font-size="14.00">AuthService</text>
</g>
<!-- AuthService&#45;&gt;AuthModule -->
<g id="edge16" class="edge">
<title>AuthService&#45;&gt;AuthModule</title>
<path fill="none" stroke="black" d="M83,-122.08C83,-162.97 83,-259 83,-259 83,-259 486.18,-259 486.18,-259"/>
<polygon fill="black" stroke="black" points="486.18,-262.5 496.18,-259 486.18,-255.5 486.18,-262.5"/>
</g>
<!-- JwtStrategy -->
<g id="node16" class="node">
<title>JwtStrategy</title>
<ellipse fill="#fdb462" stroke="black" cx="217" cy="-104" rx="56.76" ry="18"/>
<text text-anchor="middle" x="217" y="-99.8" font-family="Times,serif" font-size="14.00">JwtStrategy</text>
</g>
<!-- JwtStrategy&#45;&gt;AuthModule -->
<g id="edge17" class="edge">
<title>JwtStrategy&#45;&gt;AuthModule</title>
<path fill="none" stroke="black" d="M217,-122.15C217,-161.67 217,-252 217,-252 217,-252 486.44,-252 486.44,-252"/>
<polygon fill="black" stroke="black" points="486.44,-255.5 496.44,-252 486.44,-248.5 486.44,-255.5"/>
</g>
<!-- LocalStrategy -->
<g id="node17" class="node">
<title>LocalStrategy</title>
<ellipse fill="#fdb462" stroke="black" cx="357" cy="-104" rx="65.41" ry="18"/>
<text text-anchor="middle" x="357" y="-99.8" font-family="Times,serif" font-size="14.00">LocalStrategy</text>
</g>
<!-- LocalStrategy&#45;&gt;AuthModule -->
<g id="edge18" class="edge">
<title>LocalStrategy&#45;&gt;AuthModule</title>
<path fill="none" stroke="black" d="M357,-122.14C357,-160.23 357,-245 357,-245 357,-245 486.17,-245 486.17,-245"/>
<polygon fill="black" stroke="black" points="486.17,-248.5 496.17,-245 486.17,-241.5 486.17,-248.5"/>
</g>
<!-- UsersService -->
<g id="node18" class="node">
<title>UsersService</title>
<ellipse fill="#fdb462" stroke="black" cx="502" cy="-104" rx="61.95" ry="18"/>
<text text-anchor="middle" x="502" y="-99.8" font-family="Times,serif" font-size="14.00">UsersService</text>
</g>
<!-- UsersService&#45;&gt;AuthModule -->
<g id="edge19" class="edge">
<title>UsersService&#45;&gt;AuthModule</title>
<path fill="none" stroke="black" d="M467.8,-119.11C467.8,-154.16 467.8,-238 467.8,-238 467.8,-238 486.33,-238 486.33,-238"/>
<polygon fill="black" stroke="black" points="486.33,-241.5 496.33,-238 486.33,-234.5 486.33,-241.5"/>
</g>
<!-- UsersService&#45;&gt;DatabasesModule -->
<g id="edge22" class="edge">
<title>UsersService&#45;&gt;DatabasesModule</title>
<path fill="none" stroke="black" d="M529.77,-120.29C529.77,-126.45 529.77,-132 529.77,-132 529.77,-132 895.95,-132 895.95,-132 895.95,-132 895.95,-151.85 895.95,-151.85"/>
<polygon fill="black" stroke="black" points="892.45,-151.85 895.95,-161.85 899.45,-151.85 892.45,-151.85"/>
</g>
<!-- UsersService&#45;&gt;UsersModule -->
<g id="edge33" class="edge">
<title>UsersService&#45;&gt;UsersModule</title>
<path fill="none" stroke="black" d="M564.15,-104C582.61,-104 598,-104 598,-104 598,-104 598,-180 598,-180 598,-180 600.01,-180 600.01,-180"/>
<polygon fill="black" stroke="black" points="600.01,-183.5 610.01,-180 600.01,-176.5 600.01,-183.5"/>
</g>
<!-- CompaniesService -->
<g id="node19" class="node">
<title>CompaniesService</title>
<ellipse fill="#fdb462" stroke="black" cx="687" cy="-104" rx="83.38" ry="18"/>
<text text-anchor="middle" x="687" y="-99.8" font-family="Times,serif" font-size="14.00">CompaniesService</text>
</g>
<!-- CompaniesService&#45;&gt;CompaniesModule -->
<g id="edge20" class="edge">
<title>CompaniesService&#45;&gt;CompaniesModule</title>
<path fill="none" stroke="black" d="M745.09,-117.24C745.09,-117.24 745.09,-151.79 745.09,-151.79"/>
<polygon fill="black" stroke="black" points="741.59,-151.79 745.09,-161.79 748.59,-151.79 741.59,-151.79"/>
</g>
<!-- DatabasesService -->
<g id="node20" class="node">
<title>DatabasesService</title>
<ellipse fill="#fdb462" stroke="black" cx="889" cy="-104" rx="79.27" ry="18"/>
<text text-anchor="middle" x="889" y="-99.8" font-family="Times,serif" font-size="14.00">DatabasesService</text>
</g>
<!-- DatabasesService&#45;&gt;DatabasesModule -->
<g id="edge21" class="edge">
<title>DatabasesService&#45;&gt;DatabasesModule</title>
<path fill="none" stroke="black" d="M932.04,-119.38C932.04,-119.38 932.04,-151.97 932.04,-151.97"/>
<polygon fill="black" stroke="black" points="928.54,-151.97 932.04,-161.97 935.54,-151.97 928.54,-151.97"/>
</g>
<!-- FilesService -->
<g id="node21" class="node">
<title>FilesService</title>
<ellipse fill="#fdb462" stroke="black" cx="1067" cy="-104" rx="58.54" ry="18"/>
<text text-anchor="middle" x="1067" y="-99.8" font-family="Times,serif" font-size="14.00">FilesService</text>
</g>
<!-- FilesService&#45;&gt;FilesModule -->
<g id="edge23" class="edge">
<title>FilesService&#45;&gt;FilesModule</title>
<path fill="none" stroke="black" d="M1044.81,-120.87C1044.81,-120.87 1044.81,-151.85 1044.81,-151.85"/>
<polygon fill="black" stroke="black" points="1041.31,-151.85 1044.81,-161.85 1048.31,-151.85 1041.31,-151.85"/>
</g>
<!-- JobsService -->
<g id="node22" class="node">
<title>JobsService</title>
<ellipse fill="#fdb462" stroke="black" cx="1223" cy="-104" rx="57.32" ry="18"/>
<text text-anchor="middle" x="1223" y="-99.8" font-family="Times,serif" font-size="14.00">JobsService</text>
</g>
<!-- JobsService&#45;&gt;JobsModule -->
<g id="edge24" class="edge">
<title>JobsService&#45;&gt;JobsModule</title>
<path fill="none" stroke="black" d="M1175.03,-113.94C1175.03,-113.94 1175.03,-151.91 1175.03,-151.91"/>
<polygon fill="black" stroke="black" points="1171.53,-151.91 1175.03,-161.91 1178.53,-151.91 1171.53,-151.91"/>
</g>
<!-- MailService -->
<g id="node23" class="node">
<title>MailService</title>
<ellipse fill="#fdb462" stroke="black" cx="1378" cy="-104" rx="58.46" ry="18"/>
<text text-anchor="middle" x="1378" y="-99.8" font-family="Times,serif" font-size="14.00">MailService</text>
</g>
<!-- MailService&#45;&gt;MailModule -->
<g id="edge25" class="edge">
<title>MailService&#45;&gt;MailModule</title>
<path fill="none" stroke="black" d="M1319.59,-104C1300.49,-104 1284.08,-104 1284.08,-104 1284.08,-104 1284.08,-151.99 1284.08,-151.99"/>
<polygon fill="black" stroke="black" points="1280.58,-151.99 1284.08,-161.99 1287.58,-151.99 1280.58,-151.99"/>
</g>
<!-- PermissionsService -->
<g id="node24" class="node">
<title>PermissionsService</title>
<ellipse fill="#fdb462" stroke="black" cx="1563" cy="-104" rx="86.83" ry="18"/>
<text text-anchor="middle" x="1563" y="-99.8" font-family="Times,serif" font-size="14.00">PermissionsService</text>
</g>
<!-- PermissionsService&#45;&gt;PermissionsModule -->
<g id="edge26" class="edge">
<title>PermissionsService&#45;&gt;PermissionsModule</title>
<path fill="none" stroke="black" d="M1476.27,-104C1457.98,-104 1444.09,-104 1444.09,-104 1444.09,-104 1444.09,-180 1444.09,-180 1444.09,-180 1443.06,-180 1443.06,-180"/>
<polygon fill="black" stroke="black" points="1443.79,-176.5 1433.79,-180 1443.79,-183.5 1443.79,-176.5"/>
</g>
<!-- ResumesService -->
<g id="node25" class="node">
<title>ResumesService</title>
<ellipse fill="#fdb462" stroke="black" cx="1765" cy="-104" rx="74.71" ry="18"/>
<text text-anchor="middle" x="1765" y="-99.8" font-family="Times,serif" font-size="14.00">ResumesService</text>
</g>
<!-- ResumesService&#45;&gt;ResumesModule -->
<g id="edge27" class="edge">
<title>ResumesService&#45;&gt;ResumesModule</title>
<path fill="none" stroke="black" d="M1694.91,-110.62C1694.91,-121.51 1694.91,-142 1694.91,-142 1694.91,-142 1519.19,-142 1519.19,-142 1519.19,-142 1519.19,-151.89 1519.19,-151.89"/>
<polygon fill="black" stroke="black" points="1515.69,-151.89 1519.19,-161.89 1522.69,-151.89 1515.69,-151.89"/>
</g>
<!-- RolesService -->
<g id="node28" class="node">
<title>RolesService</title>
<ellipse fill="#fdb462" stroke="black" cx="2054" cy="-248" rx="61.97" ry="18"/>
<text text-anchor="middle" x="2054" y="-243.8" font-family="Times,serif" font-size="14.00">RolesService</text>
</g>
<!-- RolesService&#45;&gt;RolesModule -->
<g id="edge30" class="edge">
<title>RolesService&#45;&gt;RolesModule</title>
<path fill="none" stroke="black" d="M2021.03,-232.66C2021.03,-227.96 2021.03,-224 2021.03,-224 2021.03,-224 1795.43,-224 1795.43,-224 1795.43,-224 1795.43,-208.15 1795.43,-208.15"/>
<polygon fill="black" stroke="black" points="1798.93,-208.15 1795.43,-198.15 1791.93,-208.15 1798.93,-208.15"/>
</g>
<!-- SubscribersService -->
<g id="node29" class="node">
<title>SubscribersService</title>
<ellipse fill="#fdb462" stroke="black" cx="1965" cy="-104" rx="85.09" ry="18"/>
<text text-anchor="middle" x="1965" y="-99.8" font-family="Times,serif" font-size="14.00">SubscribersService</text>
</g>
<!-- SubscribersService&#45;&gt;SubscribersModule -->
<g id="edge31" class="edge">
<title>SubscribersService&#45;&gt;SubscribersModule</title>
<path fill="none" stroke="black" d="M1915.79,-118.92C1915.79,-133.01 1915.79,-152 1915.79,-152 1915.79,-152 1699.67,-152 1699.67,-152 1699.67,-152 1699.67,-152.98 1699.67,-152.98"/>
<polygon fill="black" stroke="black" points="1696.17,-151.79 1699.67,-161.79 1703.17,-151.79 1696.17,-151.79"/>
</g>
</g>
</svg>
